<svg xmlns="http://www.w3.org/2000/svg" version="1.1" xmlns:xlink="http://www.w3.org/1999/xlink" xmlns:svgjs="http://svgjs.dev/svgjs" width="1000" height="249" viewBox="0 0 1000 249"><g transform="matrix(1,0,0,1,-0.6060606060606233,-0.5975178862279336)"><svg viewBox="0 0 396 99" data-background-color="#f9f9f9" preserveAspectRatio="xMidYMid meet" height="249" width="1000" xmlns="http://www.w3.org/2000/svg" xmlns:xlink="http://www.w3.org/1999/xlink"><g id="tight-bounds" transform="matrix(1,0,0,1,0.2400000000000091,0.23756735235568271)"><svg viewBox="0 0 395.52 98.52486529528863" height="98.52486529528863" width="395.52"><g><svg viewBox="0 0 395.52 98.52486529528863" height="98.52486529528863" width="395.52"><g><svg viewBox="0 0 395.52 98.52486529528863" height="98.52486529528863" width="395.52"><g id="textblocktransform"><svg viewBox="0 0 395.52 98.52486529528863" height="98.52486529528863" width="395.52" id="textblock"><g><svg viewBox="0 0 395.52 98.52486529528863" height="98.52486529528863" width="395.52"><rect width="395.52" height="98.52486529528863" x="0" y="0" opacity="1" fill="#030303" data-fill-palette-color="tertiary"></rect><g transform="matrix(1,0,0,1,23.607599999999998,23.607599999999994)"><svg width="348.3048" viewBox="0.6000000238418579 -32.75 226.02999877929688 33.29999923706055" height="51.309665295288646" data-palette-color="#f9f9f9"><path d="M24.5-32.25L24.95-31.65 24.5-25.7 18.2-26 16.8-26 16.55-10.35 16.85 0 8.75 0 9.2-9.55 8.95-26 7.45-26 1.1-25.7 0.6-26.3 1.1-32.25 24.5-32.25ZM41.95-6.3L50.05-6.6 50.5-6 50 0 28.7 0 29.15-9.55 28.7-32.25 50.3-32.25 50.75-31.65 50.2-25.65 42.35-25.95 36.85-25.9 36.75-19.45 42-19.45 47.25-19.6 47.7-19 47.2-13 41.45-13.15 36.6-13.15 36.55-10.35 36.65-6.35 41.95-6.3ZM68.05-6.3L76.15-6.6 76.59-6 76.09 0 54.8 0 55.25-9.55 54.8-32.25 76.4-32.25 76.84-31.65 76.3-25.65 68.45-25.95 62.95-25.9 62.84-19.45 68.09-19.45 73.34-19.6 73.8-19 73.3-13 67.55-13.15 62.7-13.15 62.65-10.35 62.75-6.35 68.05-6.3ZM107.34-32.25L96.94 0 87.19 0 77.74-32.25 85.99-32.25 86.84-27.55 91.99-7.4 92.49-7.4 98.49-27.1 99.39-32.25 107.34-32.25ZM118.84-32.25L118.39-10.35 118.69 0 110.54 0 110.99-9.55 110.54-32.25 118.84-32.25ZM137.09-32.75Q141.39-32.75 145.79-31.05L145.79-31.05 144.49-24.25 143.29-23.8Q141.39-25.05 139.49-25.75 137.59-26.45 136.19-26.45L136.19-26.45Q134.54-26.45 133.56-25.63 132.59-24.8 132.59-23.7L132.59-23.7Q132.59-22.45 133.81-21.58 135.04-20.7 137.69-19.5L137.69-19.5Q140.49-18.2 142.21-17.13 143.94-16.05 145.21-14.25 146.49-12.45 146.49-9.85L146.49-9.85Q146.49-6.95 144.91-4.6 143.34-2.25 140.44-0.88 137.54 0.5 133.74 0.5L133.74 0.5Q128.69 0.5 123.74-1.5L123.74-1.5 124.89-8.75 125.74-9.25Q127.84-7.5 130.31-6.53 132.79-5.55 134.59-5.55L134.59-5.55Q136.49-5.55 137.46-6.4 138.44-7.25 138.44-8.4L138.44-8.4Q138.44-9.75 137.19-10.65 135.94-11.55 133.29-12.75L133.29-12.75Q130.59-14 128.86-15.08 127.14-16.15 125.89-17.95 124.64-19.75 124.64-22.35L124.64-22.35Q124.64-25.3 126.21-27.68 127.79-30.05 130.61-31.4 133.44-32.75 137.09-32.75L137.09-32.75ZM159.74-32.25L159.29-10.35 159.59 0 151.44 0 151.89-9.55 151.44-32.25 159.74-32.25ZM179.88-32.75Q186.78-32.75 190.53-28.63 194.28-24.5 194.28-16.9L194.28-16.9Q194.28-8.6 190.18-4.03 186.08 0.55 178.63 0.55L178.63 0.55Q171.78 0.55 168.03-3.68 164.28-7.9 164.28-15.65L164.28-15.65Q164.28-23.85 168.36-28.3 172.43-32.75 179.88-32.75L179.88-32.75ZM179.18-26.25Q176.83-26.25 175.43-25.33 174.03-24.4 173.38-22.33 172.73-20.25 172.73-16.7L172.73-16.7Q172.73-12.45 173.38-10.03 174.03-7.6 175.46-6.55 176.88-5.5 179.33-5.5L179.33-5.5Q181.73-5.5 183.13-6.43 184.53-7.35 185.16-9.45 185.78-11.55 185.78-15.2L185.78-15.2Q185.78-19.4 185.13-21.8 184.48-24.2 183.08-25.23 181.68-26.25 179.18-26.25L179.18-26.25ZM226.63-32.4L226.18-10.2 226.48 0 217.68 0 206.23-19.95 205.73-19.95 205.68-11.35 205.98 0 198.63 0 199.03-9.5 198.63-32.25 207.38-32.25 218.88-12.3 219.38-12.3 219.18-31.95 226.63-32.4Z" opacity="1" transform="matrix(1,0,0,1,0,0)" fill="#f9f9f9" class="undefined-text-0" data-fill-palette-color="quaternary" id="text-0"></path></svg></g></svg></g></svg></g></svg></g></svg></g><defs></defs></svg><rect width="395.52" height="98.52486529528863" fill="none" stroke="none" visibility="hidden"></rect></g></svg></g></svg>